<?xml version="1.0" standalone="no"?>
<!DOCTYPE svg PUBLIC "-//W3C//DTD SVG 20010904//EN"
 "http://www.w3.org/TR/2001/REC-SVG-20010904/DTD/svg10.dtd">
<svg version="1.0" xmlns="http://www.w3.org/2000/svg"
 width="58.000000pt" height="53.000000pt" viewBox="0 0 58.000000 53.000000"
 preserveAspectRatio="xMidYMid meet">
<metadata>
Created by potrace 1.16, written by Peter Selinger 2001-2019
</metadata>
<g transform="translate(0.000000,53.000000) scale(0.100000,-0.100000)"
fill="#000000" stroke="none">
<path d="M261 523 c-29 -6 -89 -43 -113 -70 -46 -50 -62 -160 -34 -226 26 -61
114 -127 171 -127 37 0 31 26 -7 34 -110 22 -176 146 -133 248 20 49 77 97
125 104 30 5 40 11 40 25 0 19 -5 20 -49 12z"/>
<path d="M244 421 c-64 -39 -79 -126 -32 -186 18 -23 72 -55 93 -55 3 0 5 29
5 65 l0 65 66 0 67 0 -7 33 c-3 18 -21 46 -41 65 -28 26 -43 32 -77 32 -24 0
-56 -8 -74 -19z"/>
<path d="M15 273 c24 -132 131 -240 253 -256 37 -4 42 -3 42 14 0 14 -7 19
-28 19 -50 0 -149 57 -181 103 -31 47 -51 98 -51 133 0 18 -6 24 -21 24 -19 0
-21 -4 -14 -37z"/>
</g>
</svg>
